<?xml version="1.0" standalone="no"?><!DOCTYPE svg PUBLIC "-//W3C//DTD SVG 1.1//EN" "http://www.w3.org/Graphics/SVG/1.1/DTD/svg11.dtd"><svg t="1686554075486" class="icon" viewBox="0 0 1024 1024" version="1.1" xmlns="http://www.w3.org/2000/svg" p-id="12224" xmlns:xlink="http://www.w3.org/1999/xlink" width="200" height="200"><path d="M761.38 299.66s-53.49-2.9-73.3-33.65c-19.81-30.75-3.13-64.8-3.13-64.8 2.58-7.16 11.09-12.32 18.89-11.13 0 0 39.3 1.06 59.11 31.82 19.82 30.75-1.57 77.76-1.57 77.76z" fill="#9CCB3B" p-id="12225"></path><path d="M270.05 840.69c41.93 25.27 107.69 55.81 185.58 60.16 94.39 5.17 183.28-29.35 264.35-102.62 52.67-47.59 89.95-108.12 107.7-175.15 30.91-117.71 3.56-206.63-81.33-264.11l-0.16-0.17c-0.84-0.54-65.25-44.72-135.69-38.34-71.16 6.41-208.71 72.48-219.8 276.08-4.64 84.67-19.5 148.42-44.4 189.29-19.74 32.36-45.35 50.86-76.25 54.86z" fill="#F9C432" p-id="12226"></path><path d="M661.29 768.25c52.95-50.66 90.99-114.46 109.94-184.61 20.97-78.27 18.41-143.88-7.34-196.24-5.99-4.96-12.22-9.8-18.96-14.37l-0.16-0.17c-0.67-0.43-24.79-40.96-78.06-48 48.52 58.81 42.03 148.63 16.61 245.47-18.84 71.14-58.4 135.38-114.3 185.88-77.45 70-161.65 106.55-250.76 109.17 3.79 1.8 7.76 3.56 11.76 5.32 21.38 5.37 44.25 9.13 68.48 10.03 92.93 3.35 181.3-34.49 262.79-112.48z" fill="#F9A826" p-id="12227"></path><path d="M357.03 834.41c-3.61 1.48-7.93 0.81-10.84-2.14-3.93-3.91-4-10.26-0.13-14.26 36.88-37.59 58.29-86.29 58.89-133.76 0.06-5.51 4.63-10.02 10.14-9.96 5.51 0.06 10.02 4.63 9.96 10.14-0.61 52.59-24.15 106.38-64.57 147.59-1.1 1.11-2.22 1.85-3.45 2.39" fill="#FFFFFF" p-id="12228"></path><path d="M775.18 585.71c12.58-54.46 14.28-103.45 4.89-145.82-12.32-55.8-43.62-100.35-93.02-132.41-1.56-1.07-12.78-8.41-30.35-16.12 0.27-0.88 0.46-1.8 0.54-2.77l11.58-143.93c0.54-6.96-4.6-13.07-11.65-13.65-6.96-0.54-13.08 4.6-13.64 11.65L632.3 282.19c-24.57-7.76-55.28-13.03-87.73-7.83-46.9 7.52-97.47 36.75-135.16 78.19-23.83 26.14-42.94 57.23-56.86 92.17-15.84 39.88-24.79 85.02-26.76 134.24-5.15 132.17-36.36 210.32-87.7 219.92-10.51 1.96-18.36 10.02-20.15 20.58-1.69 10.28 2.94 20.27 11.83 25.4 18.73 10.82 42.44 22.52 70.09 32.06 33.11 11.43 71.86 19.73 114.42 19.41 93.24-0.53 180.08-41.89 258.26-122.66 50.7-52.47 86.21-117.54 102.64-187.96zM654.12 755.93c-73.15 75.78-153.89 114.48-240.11 115.05-71.14 0.39-131.52-25.31-170.1-47.32 28.16-5.7 51.32-25.14 68.96-57.66 22.25-41.08 35.08-103.73 38.33-186.04 7.76-197.94 132.55-270.08 197.43-280.5 64.23-10.34 123.54 28.66 124.31 29.13l0.15 0.16c78.15 50.68 104.15 135.22 77.3 251.1-15.42 66-48.75 126.86-96.27 176.08z" fill="#333333" p-id="12229"></path><path d="M684.45 269.42c9.72 11.74 22.73 19.03 35.68 23.49 24.79 8.56 49.47 6.93 50.96 6.82l11.15-0.81 0.64-11.17c1.96-33.27-6.42-59.67-24.79-78.43-28.63-29.24-70.75-28.04-72.55-27.94l-9.35 0.39-2.42 9.1c-8.85 32.89-5.23 59.3 10.68 78.55z m55.47-42.23c11.02 11.25 16.95 27.07 17.7 47.1-14.81-0.87-40.14-4.85-53.59-21.08-8.89-10.83-11.57-26.15-7.99-45.82 11.24 1.28 30.14 5.63 43.88 19.8z" p-id="12230"></path><path d="M543.97 387.17m-21.59 0a21.59 21.59 0 1 0 43.18 0 21.59 21.59 0 1 0-43.18 0Z" fill="#FFFFFF" p-id="12231"></path><path d="M684.45 269.42c9.72 11.74 22.73 19.03 35.68 23.49 24.79 8.56 49.47 6.93 50.96 6.82l11.15-0.81 0.64-11.17c1.96-33.27-6.42-59.67-24.79-78.43-28.63-29.24-70.75-28.04-72.55-27.94l-9.35 0.39-2.42 9.1c-8.85 32.89-5.23 59.3 10.68 78.55z m55.47-42.23c11.02 11.25 16.95 27.07 17.7 47.1-14.81-0.87-40.14-4.85-53.59-21.08-8.89-10.83-11.57-26.15-7.99-45.82 11.24 1.28 30.14 5.63 43.88 19.8z" fill="#333333" p-id="12232"></path></svg>